<svg height="138" width="250"><defs><marker id="triangle" viewBox="0 0 14 14" refX="0" refY="5" markerUnits="strokeWidth" markerWidth="10" markerHeight="10" orient="auto"><path d="M 0 0 L 10 5 L 0 10 z"></path></marker></defs><line x1="4" x2="12" y1="8" y2="8" stroke="rgb(0,0,0)" stroke-width="1" stroke-linecap="round" stroke-linejoin="mitter"></line><line x1="4" x2="4" y1="8" y2="16" stroke="rgb(0,0,0)" stroke-width="1" stroke-linecap="round" stroke-linejoin="mitter"></line><line x1="8" x2="16" y1="8" y2="8" stroke="rgb(0,0,0)" stroke-width="1" stroke-linecap="round" stroke-linejoin="mitter"></line><line x1="16" x2="24" y1="8" y2="8" stroke="rgb(0,0,0)" stroke-width="1" stroke-linecap="round" stroke-linejoin="mitter"></line><line x1="24" x2="32" y1="8" y2="8" stroke="rgb(0,0,0)" stroke-width="1" stroke-linecap="round" stroke-linejoin="mitter"></line><line x1="32" x2="40" y1="8" y2="8" stroke="rgb(0,0,0)" stroke-width="1" stroke-linecap="round" stroke-linejoin="mitter"></line><line x1="40" x2="48" y1="8" y2="8" stroke="rgb(0,0,0)" stroke-width="1" stroke-linecap="round" stroke-linejoin="mitter"></line><line x1="48" x2="56" y1="8" y2="8" stroke="rgb(0,0,0)" stroke-width="1" stroke-linecap="round" stroke-linejoin="mitter"></line><line x1="56" x2="64" y1="8" y2="8" stroke="rgb(0,0,0)" stroke-width="1" stroke-linecap="round" stroke-linejoin="mitter"></line><line x1="64" x2="72" y1="8" y2="8" stroke="rgb(0,0,0)" stroke-width="1" stroke-linecap="round" stroke-linejoin="mitter"></line><line x1="72" x2="80" y1="8" y2="8" stroke="rgb(0,0,0)" stroke-width="1" stroke-linecap="round" stroke-linejoin="mitter"></line><line x1="80" x2="88" y1="8" y2="8" stroke="rgb(0,0,0)" stroke-width="1" stroke-linecap="round" stroke-linejoin="mitter"></line><line x1="88" x2="96" y1="8" y2="8" stroke="rgb(0,0,0)" stroke-width="1" stroke-linecap="round" stroke-linejoin="mitter"></line><line x1="96" x2="104" y1="8" y2="8" stroke="rgb(0,0,0)" stroke-width="1" stroke-linecap="round" stroke-linejoin="mitter"></line><line x1="104" x2="112" y1="8" y2="8" stroke="rgb(0,0,0)" stroke-width="1" stroke-linecap="round" stroke-linejoin="mitter"></line><line x1="112" x2="120" y1="8" y2="8" stroke="rgb(0,0,0)" stroke-width="1" stroke-linecap="round" stroke-linejoin="mitter"></line><line x1="120" x2="128" y1="8" y2="8" stroke="rgb(0,0,0)" stroke-width="1" stroke-linecap="round" stroke-linejoin="mitter"></line><line x1="128" x2="136" y1="8" y2="8" stroke="rgb(0,0,0)" stroke-width="1" stroke-linecap="round" stroke-linejoin="mitter"></line><line x1="136" x2="144" y1="8" y2="8" stroke="rgb(0,0,0)" stroke-width="1" stroke-linecap="round" stroke-linejoin="mitter"></line><line x1="144" x2="152" y1="8" y2="8" stroke="rgb(0,0,0)" stroke-width="1" stroke-linecap="round" stroke-linejoin="mitter"></line><line x1="152" x2="160" y1="8" y2="8" stroke="rgb(0,0,0)" stroke-width="1" stroke-linecap="round" stroke-linejoin="mitter"></line><line x1="160" x2="168" y1="8" y2="8" stroke="rgb(0,0,0)" stroke-width="1" stroke-linecap="round" stroke-linejoin="mitter"></line><line x1="168" x2="176" y1="8" y2="8" stroke="rgb(0,0,0)" stroke-width="1" stroke-linecap="round" stroke-linejoin="mitter"></line><line x1="176" x2="184" y1="8" y2="8" stroke="rgb(0,0,0)" stroke-width="1" stroke-linecap="round" stroke-linejoin="mitter"></line><line x1="184" x2="192" y1="8" y2="8" stroke="rgb(0,0,0)" stroke-width="1" stroke-linecap="round" stroke-linejoin="mitter"></line><line x1="192" x2="200" y1="8" y2="8" stroke="rgb(0,0,0)" stroke-width="1" stroke-linecap="round" stroke-linejoin="mitter"></line><line x1="200" x2="208" y1="8" y2="8" stroke="rgb(0,0,0)" stroke-width="1" stroke-linecap="round" stroke-linejoin="mitter"></line><line x1="208" x2="216" y1="8" y2="8" stroke="rgb(0,0,0)" stroke-width="1" stroke-linecap="round" stroke-linejoin="mitter"></line><line x1="216" x2="224" y1="8" y2="8" stroke="rgb(0,0,0)" stroke-width="1" stroke-linecap="round" stroke-linejoin="mitter"></line><line x1="224" x2="232" y1="8" y2="8" stroke="rgb(0,0,0)" stroke-width="1" stroke-linecap="round" stroke-linejoin="mitter"></line><line x1="232" x2="236" y1="8" y2="8" stroke="rgb(0,0,0)" stroke-width="1" stroke-linecap="round" stroke-linejoin="mitter"></line><line x1="236" x2="236" y1="8" y2="16" stroke="rgb(0,0,0)" stroke-width="1" stroke-linecap="round" stroke-linejoin="mitter"></line><line x1="4" x2="4" y1="16" y2="32" stroke="rgb(0,0,0)" stroke-width="1" stroke-linecap="round" stroke-linejoin="mitter"></line><line x1="44" x2="52" y1="24" y2="24" stroke="rgb(0,0,0)" stroke-width="1" stroke-linecap="round" stroke-linejoin="mitter"></line><line x1="44" x2="44" y1="24" y2="32" stroke="rgb(0,0,0)" stroke-width="1" stroke-linecap="round" stroke-linejoin="mitter"></line><line x1="48" x2="56" y1="24" y2="24" stroke="rgb(0,0,0)" stroke-width="1" stroke-linecap="round" stroke-linejoin="mitter"></line><line x1="56" x2="64" y1="24" y2="24" stroke="rgb(0,0,0)" stroke-width="1" stroke-linecap="round" stroke-linejoin="mitter"></line><line x1="84" x2="84" y1="16" y2="32" stroke="rgb(0,0,0)" stroke-width="1" stroke-linecap="round" stroke-linejoin="mitter"></line><line x1="108" x2="108" y1="16" y2="32" stroke="rgb(0,0,0)" stroke-width="1" stroke-linecap="round" stroke-linejoin="mitter"></line><line x1="124" x2="132" y1="24" y2="24" stroke="rgb(0,0,0)" stroke-width="1" stroke-linecap="round" stroke-linejoin="mitter"></line><line x1="124" x2="124" y1="24" y2="32" stroke="rgb(0,0,0)" stroke-width="1" stroke-linecap="round" stroke-linejoin="mitter"></line><line x1="128" x2="136" y1="24" y2="24" stroke="rgb(0,0,0)" stroke-width="1" stroke-linecap="round" stroke-linejoin="mitter"></line><line x1="136" x2="144" y1="24" y2="24" stroke="rgb(0,0,0)" stroke-width="1" stroke-linecap="round" stroke-linejoin="mitter"></line><line x1="144" x2="152" y1="24" y2="24" stroke="rgb(0,0,0)" stroke-width="1" stroke-linecap="round" stroke-linejoin="mitter"></line><line x1="152" x2="156" y1="24" y2="24" stroke="rgb(0,0,0)" stroke-width="1" stroke-linecap="round" stroke-linejoin="mitter"></line><line x1="156" x2="156" y1="24" y2="32" stroke="rgb(0,0,0)" stroke-width="1" stroke-linecap="round" stroke-linejoin="mitter"></line><line x1="172" x2="180" y1="24" y2="24" stroke="rgb(0,0,0)" stroke-width="1" stroke-linecap="round" stroke-linejoin="mitter"></line><line x1="172" x2="172" y1="24" y2="32" stroke="rgb(0,0,0)" stroke-width="1" stroke-linecap="round" stroke-linejoin="mitter"></line><line x1="176" x2="184" y1="24" y2="24" stroke="rgb(0,0,0)" stroke-width="1" stroke-linecap="round" stroke-linejoin="mitter"></line><line x1="184" x2="192" y1="24" y2="24" stroke="rgb(0,0,0)" stroke-width="1" stroke-linecap="round" stroke-linejoin="mitter"></line><line x1="192" x2="200" y1="24" y2="24" stroke="rgb(0,0,0)" stroke-width="1" stroke-linecap="round" stroke-linejoin="mitter"></line><line x1="236" x2="236" y1="16" y2="32" stroke="rgb(0,0,0)" stroke-width="1" stroke-linecap="round" stroke-linejoin="mitter"></line><line x1="4" x2="4" y1="32" y2="48" stroke="rgb(0,0,0)" stroke-width="1" stroke-linecap="round" stroke-linejoin="mitter"></line><line x1="44" x2="44" y1="32" y2="48" stroke="rgb(0,0,0)" stroke-width="1" stroke-linecap="round" stroke-linejoin="mitter"></line><line x1="84" x2="84" y1="32" y2="48" stroke="rgb(0,0,0)" stroke-width="1" stroke-linecap="round" stroke-linejoin="mitter"></line><line x1="108" x2="108" y1="32" y2="48" stroke="rgb(0,0,0)" stroke-width="1" stroke-linecap="round" stroke-linejoin="mitter"></line><line x1="124" x2="124" y1="32" y2="48" stroke="rgb(0,0,0)" stroke-width="1" stroke-linecap="round" stroke-linejoin="mitter"></line><line x1="156" x2="156" y1="32" y2="48" stroke="rgb(0,0,0)" stroke-width="1" stroke-linecap="round" stroke-linejoin="mitter"></line><line x1="172" x2="172" y1="32" y2="48" stroke="rgb(0,0,0)" stroke-width="1" stroke-linecap="round" stroke-linejoin="mitter"></line><line x1="236" x2="236" y1="32" y2="48" stroke="rgb(0,0,0)" stroke-width="1" stroke-linecap="round" stroke-linejoin="mitter"></line><line x1="4" x2="4" y1="48" y2="64" stroke="rgb(0,0,0)" stroke-width="1" stroke-linecap="round" stroke-linejoin="mitter"></line><line x1="44" x2="44" y1="48" y2="64" stroke="rgb(0,0,0)" stroke-width="1" stroke-linecap="round" stroke-linejoin="mitter"></line><line x1="68" x2="68" y1="48" y2="64" stroke="rgb(0,0,0)" stroke-width="1" stroke-linecap="round" stroke-linejoin="mitter"></line><line x1="84" x2="84" y1="48" y2="56" stroke="rgb(0,0,0)" stroke-width="1" stroke-linecap="round" stroke-linejoin="mitter"></line><line x1="84" x2="92" y1="56" y2="56" stroke="rgb(0,0,0)" stroke-width="1" stroke-linecap="round" stroke-linejoin="mitter"></line><line x1="88" x2="96" y1="56" y2="56" stroke="rgb(0,0,0)" stroke-width="1" stroke-linecap="round" stroke-linejoin="mitter"></line><line x1="96" x2="104" y1="56" y2="56" stroke="rgb(0,0,0)" stroke-width="1" stroke-linecap="round" stroke-linejoin="mitter"></line><line x1="108" x2="108" y1="48" y2="56" stroke="rgb(0,0,0)" stroke-width="1" stroke-linecap="round" stroke-linejoin="mitter"></line><line x1="108" x2="108" y1="56" y2="64" stroke="rgb(0,0,0)" stroke-width="1" stroke-linecap="round" stroke-linejoin="mitter"></line><line x1="104" x2="108" y1="56" y2="56" stroke="rgb(0,0,0)" stroke-width="1" stroke-linecap="round" stroke-linejoin="mitter"></line><line x1="124" x2="124" y1="48" y2="56" stroke="rgb(0,0,0)" stroke-width="1" stroke-linecap="round" stroke-linejoin="mitter"></line><line x1="124" x2="124" y1="56" y2="64" stroke="rgb(0,0,0)" stroke-width="1" stroke-linecap="round" stroke-linejoin="mitter"></line><line x1="124" x2="132" y1="56" y2="56" stroke="rgb(0,0,0)" stroke-width="1" stroke-linecap="round" stroke-linejoin="mitter"></line><line x1="128" x2="136" y1="56" y2="56" stroke="rgb(0,0,0)" stroke-width="1" stroke-linecap="round" stroke-linejoin="mitter"></line><line x1="136" x2="144" y1="56" y2="56" stroke="rgb(0,0,0)" stroke-width="1" stroke-linecap="round" stroke-linejoin="mitter"></line><line x1="144" x2="152" y1="56" y2="56" stroke="rgb(0,0,0)" stroke-width="1" stroke-linecap="round" stroke-linejoin="mitter"></line><line x1="156" x2="156" y1="48" y2="56" stroke="rgb(0,0,0)" stroke-width="1" stroke-linecap="round" stroke-linejoin="mitter"></line><line x1="152" x2="156" y1="56" y2="56" stroke="rgb(0,0,0)" stroke-width="1" stroke-linecap="round" stroke-linejoin="mitter"></line><line x1="172" x2="172" y1="48" y2="56" stroke="rgb(0,0,0)" stroke-width="1" stroke-linecap="round" stroke-linejoin="mitter"></line><line x1="172" x2="180" y1="56" y2="56" stroke="rgb(0,0,0)" stroke-width="1" stroke-linecap="round" stroke-linejoin="mitter"></line><line x1="176" x2="184" y1="56" y2="56" stroke="rgb(0,0,0)" stroke-width="1" stroke-linecap="round" stroke-linejoin="mitter"></line><line x1="184" x2="192" y1="56" y2="56" stroke="rgb(0,0,0)" stroke-width="1" stroke-linecap="round" stroke-linejoin="mitter"></line><line x1="192" x2="196" y1="56" y2="56" stroke="rgb(0,0,0)" stroke-width="1" stroke-linecap="round" stroke-linejoin="mitter"></line><line x1="196" x2="196" y1="56" y2="64" stroke="rgb(0,0,0)" stroke-width="1" stroke-linecap="round" stroke-linejoin="mitter"></line><line x1="236" x2="236" y1="48" y2="64" stroke="rgb(0,0,0)" stroke-width="1" stroke-linecap="round" stroke-linejoin="mitter"></line><line x1="4" x2="4" y1="64" y2="80" stroke="rgb(0,0,0)" stroke-width="1" stroke-linecap="round" stroke-linejoin="mitter"></line><line x1="44" x2="44" y1="64" y2="72" stroke="rgb(0,0,0)" stroke-width="1" stroke-linecap="round" stroke-linejoin="mitter"></line><line x1="44" x2="52" y1="72" y2="72" stroke="rgb(0,0,0)" stroke-width="1" stroke-linecap="round" stroke-linejoin="mitter"></line><line x1="48" x2="56" y1="72" y2="72" stroke="rgb(0,0,0)" stroke-width="1" stroke-linecap="round" stroke-linejoin="mitter"></line><line x1="56" x2="64" y1="72" y2="72" stroke="rgb(0,0,0)" stroke-width="1" stroke-linecap="round" stroke-linejoin="mitter"></line><line x1="68" x2="68" y1="64" y2="72" stroke="rgb(0,0,0)" stroke-width="1" stroke-linecap="round" stroke-linejoin="mitter"></line><line x1="64" x2="68" y1="72" y2="72" stroke="rgb(0,0,0)" stroke-width="1" stroke-linecap="round" stroke-linejoin="mitter"></line><line x1="108" x2="108" y1="64" y2="80" stroke="rgb(0,0,0)" stroke-width="1" stroke-linecap="round" stroke-linejoin="mitter"></line><line x1="124" x2="124" y1="64" y2="80" stroke="rgb(0,0,0)" stroke-width="1" stroke-linecap="round" stroke-linejoin="mitter"></line><line x1="196" x2="196" y1="64" y2="80" stroke="rgb(0,0,0)" stroke-width="1" stroke-linecap="round" stroke-linejoin="mitter"></line><line x1="236" x2="236" y1="64" y2="80" stroke="rgb(0,0,0)" stroke-width="1" stroke-linecap="round" stroke-linejoin="mitter"></line><line x1="4" x2="4" y1="80" y2="88" stroke="rgb(0,0,0)" stroke-width="1" stroke-linecap="round" stroke-linejoin="mitter"></line><line x1="4" x2="4" y1="88" y2="96" stroke="rgb(0,0,0)" stroke-width="1" stroke-linecap="round" stroke-linejoin="mitter"></line><line x1="4" x2="12" y1="88" y2="88" stroke="rgb(0,0,0)" stroke-width="1" stroke-linecap="round" stroke-linejoin="mitter"></line><line x1="8" x2="16" y1="88" y2="88" stroke="rgb(0,0,0)" stroke-width="1" stroke-linecap="round" stroke-linejoin="mitter"></line><line x1="16" x2="24" y1="88" y2="88" stroke="rgb(0,0,0)" stroke-width="1" stroke-linecap="round" stroke-linejoin="mitter"></line><line x1="24" x2="32" y1="88" y2="88" stroke="rgb(0,0,0)" stroke-width="1" stroke-linecap="round" stroke-linejoin="mitter"></line><line x1="32" x2="40" y1="88" y2="88" stroke="rgb(0,0,0)" stroke-width="1" stroke-linecap="round" stroke-linejoin="mitter"></line><line x1="40" x2="48" y1="88" y2="88" stroke="rgb(0,0,0)" stroke-width="1" stroke-linecap="round" stroke-linejoin="mitter"></line><line x1="48" x2="56" y1="88" y2="88" stroke="rgb(0,0,0)" stroke-width="1" stroke-linecap="round" stroke-linejoin="mitter"></line><line x1="56" x2="64" y1="88" y2="88" stroke="rgb(0,0,0)" stroke-width="1" stroke-linecap="round" stroke-linejoin="mitter"></line><line x1="64" x2="72" y1="88" y2="88" stroke="rgb(0,0,0)" stroke-width="1" stroke-linecap="round" stroke-linejoin="mitter"></line><line x1="72" x2="80" y1="88" y2="88" stroke="rgb(0,0,0)" stroke-width="1" stroke-linecap="round" stroke-linejoin="mitter"></line><line x1="80" x2="88" y1="88" y2="88" stroke="rgb(0,0,0)" stroke-width="1" stroke-linecap="round" stroke-linejoin="mitter"></line><line x1="88" x2="96" y1="88" y2="88" stroke="rgb(0,0,0)" stroke-width="1" stroke-linecap="round" stroke-linejoin="mitter"></line><line x1="96" x2="104" y1="88" y2="88" stroke="rgb(0,0,0)" stroke-width="1" stroke-linecap="round" stroke-linejoin="mitter"></line><line x1="104" x2="112" y1="88" y2="88" stroke="rgb(0,0,0)" stroke-width="1" stroke-linecap="round" stroke-linejoin="mitter"></line><line x1="112" x2="120" y1="88" y2="88" stroke="rgb(0,0,0)" stroke-width="1" stroke-linecap="round" stroke-linejoin="mitter"></line><line x1="120" x2="128" y1="88" y2="88" stroke="rgb(0,0,0)" stroke-width="1" stroke-linecap="round" stroke-linejoin="mitter"></line><line x1="128" x2="136" y1="88" y2="88" stroke="rgb(0,0,0)" stroke-width="1" stroke-linecap="round" stroke-linejoin="mitter"></line><line x1="136" x2="144" y1="88" y2="88" stroke="rgb(0,0,0)" stroke-width="1" stroke-linecap="round" stroke-linejoin="mitter"></line><line x1="144" x2="152" y1="88" y2="88" stroke="rgb(0,0,0)" stroke-width="1" stroke-linecap="round" stroke-linejoin="mitter"></line><line x1="152" x2="160" y1="88" y2="88" stroke="rgb(0,0,0)" stroke-width="1" stroke-linecap="round" stroke-linejoin="mitter"></line><line x1="160" x2="168" y1="88" y2="88" stroke="rgb(0,0,0)" stroke-width="1" stroke-linecap="round" stroke-linejoin="mitter"></line><line x1="168" x2="176" y1="88" y2="88" stroke="rgb(0,0,0)" stroke-width="1" stroke-linecap="round" stroke-linejoin="mitter"></line><line x1="176" x2="184" y1="88" y2="88" stroke="rgb(0,0,0)" stroke-width="1" stroke-linecap="round" stroke-linejoin="mitter"></line><line x1="184" x2="192" y1="88" y2="88" stroke="rgb(0,0,0)" stroke-width="1" stroke-linecap="round" stroke-linejoin="mitter"></line><line x1="192" x2="200" y1="88" y2="88" stroke="rgb(0,0,0)" stroke-width="1" stroke-linecap="round" stroke-linejoin="mitter"></line><line x1="200" x2="208" y1="88" y2="88" stroke="rgb(0,0,0)" stroke-width="1" stroke-linecap="round" stroke-linejoin="mitter"></line><line x1="208" x2="216" y1="88" y2="88" stroke="rgb(0,0,0)" stroke-width="1" stroke-linecap="round" stroke-linejoin="mitter"></line><line x1="216" x2="224" y1="88" y2="88" stroke="rgb(0,0,0)" stroke-width="1" stroke-linecap="round" stroke-linejoin="mitter"></line><line x1="224" x2="232" y1="88" y2="88" stroke="rgb(0,0,0)" stroke-width="1" stroke-linecap="round" stroke-linejoin="mitter"></line><line x1="236" x2="236" y1="80" y2="88" stroke="rgb(0,0,0)" stroke-width="1" stroke-linecap="round" stroke-linejoin="mitter"></line><line x1="236" x2="236" y1="88" y2="96" stroke="rgb(0,0,0)" stroke-width="1" stroke-linecap="round" stroke-linejoin="mitter"></line><line x1="232" x2="236" y1="88" y2="88" stroke="rgb(0,0,0)" stroke-width="1" stroke-linecap="round" stroke-linejoin="mitter"></line><line x1="4" x2="4" y1="96" y2="112" stroke="rgb(0,0,0)" stroke-width="1" stroke-linecap="round" stroke-linejoin="mitter"></line><text x="14" y="108" style="font-size:14px;font-family:monospace">C</text><text x="22" y="108" style="font-size:14px;font-family:monospace">h</text><text x="30" y="108" style="font-size:14px;font-family:monospace">e</text><text x="38" y="108" style="font-size:14px;font-family:monospace">a</text><text x="46" y="108" style="font-size:14px;font-family:monospace">p</text><text x="62" y="108" style="font-size:14px;font-family:monospace">r</text><text x="70" y="108" style="font-size:14px;font-family:monospace">e</text><text x="78" y="108" style="font-size:14px;font-family:monospace">a</text><text x="86" y="108" style="font-size:14px;font-family:monospace">c</text><text x="94" y="108" style="font-size:14px;font-family:monospace">t</text><text x="102" y="108" style="font-size:14px;font-family:monospace">i</text><text x="110" y="108" style="font-size:14px;font-family:monospace">v</text><text x="118" y="108" style="font-size:14px;font-family:monospace">e</text><text x="134" y="108" style="font-size:14px;font-family:monospace">p</text><text x="142" y="108" style="font-size:14px;font-family:monospace">r</text><text x="150" y="108" style="font-size:14px;font-family:monospace">o</text><text x="158" y="108" style="font-size:14px;font-family:monospace">g</text><text x="166" y="108" style="font-size:14px;font-family:monospace">r</text><text x="174" y="108" style="font-size:14px;font-family:monospace">a</text><text x="182" y="108" style="font-size:14px;font-family:monospace">m</text><text x="190" y="108" style="font-size:14px;font-family:monospace">m</text><text x="198" y="108" style="font-size:14px;font-family:monospace">i</text><text x="206" y="108" style="font-size:14px;font-family:monospace">n</text><text x="214" y="108" style="font-size:14px;font-family:monospace">g</text><line x1="236" x2="236" y1="96" y2="112" stroke="rgb(0,0,0)" stroke-width="1" stroke-linecap="round" stroke-linejoin="mitter"></line><line x1="4" x2="4" y1="112" y2="120" stroke="rgb(0,0,0)" stroke-width="1" stroke-linecap="round" stroke-linejoin="mitter"></line><line x1="4" x2="12" y1="120" y2="120" stroke="rgb(0,0,0)" stroke-width="1" stroke-linecap="round" stroke-linejoin="mitter"></line><line x1="8" x2="16" y1="120" y2="120" stroke="rgb(0,0,0)" stroke-width="1" stroke-linecap="round" stroke-linejoin="mitter"></line><line x1="16" x2="24" y1="120" y2="120" stroke="rgb(0,0,0)" stroke-width="1" stroke-linecap="round" stroke-linejoin="mitter"></line><line x1="24" x2="32" y1="120" y2="120" stroke="rgb(0,0,0)" stroke-width="1" stroke-linecap="round" stroke-linejoin="mitter"></line><line x1="32" x2="40" y1="120" y2="120" stroke="rgb(0,0,0)" stroke-width="1" stroke-linecap="round" stroke-linejoin="mitter"></line><line x1="40" x2="48" y1="120" y2="120" stroke="rgb(0,0,0)" stroke-width="1" stroke-linecap="round" stroke-linejoin="mitter"></line><line x1="48" x2="56" y1="120" y2="120" stroke="rgb(0,0,0)" stroke-width="1" stroke-linecap="round" stroke-linejoin="mitter"></line><line x1="56" x2="64" y1="120" y2="120" stroke="rgb(0,0,0)" stroke-width="1" stroke-linecap="round" stroke-linejoin="mitter"></line><line x1="64" x2="72" y1="120" y2="120" stroke="rgb(0,0,0)" stroke-width="1" stroke-linecap="round" stroke-linejoin="mitter"></line><line x1="72" x2="80" y1="120" y2="120" stroke="rgb(0,0,0)" stroke-width="1" stroke-linecap="round" stroke-linejoin="mitter"></line><line x1="80" x2="88" y1="120" y2="120" stroke="rgb(0,0,0)" stroke-width="1" stroke-linecap="round" stroke-linejoin="mitter"></line><line x1="88" x2="96" y1="120" y2="120" stroke="rgb(0,0,0)" stroke-width="1" stroke-linecap="round" stroke-linejoin="mitter"></line><line x1="96" x2="104" y1="120" y2="120" stroke="rgb(0,0,0)" stroke-width="1" stroke-linecap="round" stroke-linejoin="mitter"></line><line x1="104" x2="112" y1="120" y2="120" stroke="rgb(0,0,0)" stroke-width="1" stroke-linecap="round" stroke-linejoin="mitter"></line><line x1="112" x2="120" y1="120" y2="120" stroke="rgb(0,0,0)" stroke-width="1" stroke-linecap="round" stroke-linejoin="mitter"></line><line x1="120" x2="128" y1="120" y2="120" stroke="rgb(0,0,0)" stroke-width="1" stroke-linecap="round" stroke-linejoin="mitter"></line><line x1="128" x2="136" y1="120" y2="120" stroke="rgb(0,0,0)" stroke-width="1" stroke-linecap="round" stroke-linejoin="mitter"></line><line x1="136" x2="144" y1="120" y2="120" stroke="rgb(0,0,0)" stroke-width="1" stroke-linecap="round" stroke-linejoin="mitter"></line><line x1="144" x2="152" y1="120" y2="120" stroke="rgb(0,0,0)" stroke-width="1" stroke-linecap="round" stroke-linejoin="mitter"></line><line x1="152" x2="160" y1="120" y2="120" stroke="rgb(0,0,0)" stroke-width="1" stroke-linecap="round" stroke-linejoin="mitter"></line><line x1="160" x2="168" y1="120" y2="120" stroke="rgb(0,0,0)" stroke-width="1" stroke-linecap="round" stroke-linejoin="mitter"></line><line x1="168" x2="176" y1="120" y2="120" stroke="rgb(0,0,0)" stroke-width="1" stroke-linecap="round" stroke-linejoin="mitter"></line><line x1="176" x2="184" y1="120" y2="120" stroke="rgb(0,0,0)" stroke-width="1" stroke-linecap="round" stroke-linejoin="mitter"></line><line x1="184" x2="192" y1="120" y2="120" stroke="rgb(0,0,0)" stroke-width="1" stroke-linecap="round" stroke-linejoin="mitter"></line><line x1="192" x2="200" y1="120" y2="120" stroke="rgb(0,0,0)" stroke-width="1" stroke-linecap="round" stroke-linejoin="mitter"></line><line x1="200" x2="208" y1="120" y2="120" stroke="rgb(0,0,0)" stroke-width="1" stroke-linecap="round" stroke-linejoin="mitter"></line><line x1="208" x2="216" y1="120" y2="120" stroke="rgb(0,0,0)" stroke-width="1" stroke-linecap="round" stroke-linejoin="mitter"></line><line x1="216" x2="224" y1="120" y2="120" stroke="rgb(0,0,0)" stroke-width="1" stroke-linecap="round" stroke-linejoin="mitter"></line><line x1="224" x2="232" y1="120" y2="120" stroke="rgb(0,0,0)" stroke-width="1" stroke-linecap="round" stroke-linejoin="mitter"></line><line x1="236" x2="236" y1="112" y2="120" stroke="rgb(0,0,0)" stroke-width="1" stroke-linecap="round" stroke-linejoin="mitter"></line><line x1="232" x2="236" y1="120" y2="120" stroke="rgb(0,0,0)" stroke-width="1" stroke-linecap="round" stroke-linejoin="mitter"></line></svg>